<?xml version="1.0" encoding="UTF-8"?>
<svg width="640pt" version="1.1" xmlns="http://www.w3.org/2000/svg" height="160pt" viewBox="0 0 640 160" xmlns:xlink="http://www.w3.org/1999/xlink">
 <defs>
  <path id="GlRokkitt72" d="M0.351562 10 L2.51469 10 L2.51469 9.38469 L1.81641 9.38469 L1.81641 7.37297 L4.50687 7.37297 L4.50687 9.37984 L3.80859 9.37984 L3.80859 10 L5.96687 10 L5.96687 9.38969 L5.28812 9.38969 L5.28812 7.18266 L5.28812 4.99016 L5.96687 4.99016 L5.96687 4.37016 L3.80859 4.37016 L3.80859 4.98531 L4.50203 4.98531 L4.50203 6.74313 L1.81156 6.74313 L1.81156 4.99016 L2.51469 4.99016 L2.51469 4.37016 L0.351562 4.37016 L0.351562 4.97562 L1.03031 4.97562 L1.03031 7.18266 L1.03031 9.37984 L0.351562 9.37984 L0.351562 10 Z"/>
  <path id="GlRokkitt97" d="M1.59672 10.1075 C2.085 10.1075 2.45609 9.97063 2.97359 9.59469 C2.97859 9.59469 2.98344 10 2.98344 10 L4.33594 10 L4.33594 9.40922 L3.63281 9.40922 L3.63281 7.29484 C3.63281 6.62594 3.27641 6.00094 2.04594 6.00094 C1.24031 6.00094 0.659219 6.28422 0.361406 6.79688 L1.045 6.98734 C1.23047 6.71875 1.54781 6.57719 1.94828 6.57719 C2.46578 6.57719 2.90531 6.78219 2.90531 7.32906 L2.90531 7.80266 C2.58797 7.73922 2.26562 7.705 1.96297 7.705 C1.03516 7.705 0.268594 7.97359 0.268594 8.94531 C0.268594 9.54594 0.771563 10.1075 1.59672 10.1075 L1.59672 10.1075 Z M2.90531 9.13078 C2.6075 9.39937 2.12891 9.56547 1.69922 9.56547 C1.22078 9.56547 0.957031 9.28703 0.957031 8.94531 C0.957031 8.30562 1.49906 8.20312 2.01172 8.20312 C2.36328 8.20312 2.69531 8.27641 2.90531 8.28125 L2.90531 9.13078 Z"/>
  <path id="GlRokkitt99" d="M2.29984 10.0928 C3.16406 10.0928 3.80859 9.73625 4.10641 9.08203 L3.51562 8.81344 C3.27156 9.24312 2.84187 9.46281 2.31937 9.46281 C1.51375 9.46281 1.05469 8.85734 1.05469 7.99797 C1.05469 7.20703 1.49422 6.63078 2.29984 6.63078 C2.96391 6.63078 3.27156 6.90922 3.37406 7.47562 L4.00391 7.47562 L4.00391 6.06937 L3.35453 6.06937 L3.34969 6.42094 C3.125 6.09859 2.67094 6.00094 2.24609 6.00094 C1.05953 6.00094 0.278281 6.95312 0.278281 8.00781 C0.278281 8.96484 0.869219 10.0928 2.29984 10.0928 Z"/>
  <path id="GlRokkitt107" d="M0.0976562 10 L2.07516 10 L2.07516 9.40422 L1.56734 9.40422 L1.56734 8.0225 L3.13969 9.40422 L2.62203 9.40422 L2.62203 10 L4.67781 10 L4.67781 9.40422 L4.04297 9.40422 L2.41219 7.97359 L4.03328 6.62594 L4.67781 6.62594 L4.67781 6.06937 L2.49031 6.06937 L2.49031 6.62594 L3.17391 6.62594 L1.56734 7.90031 L1.56734 4.37016 L0.0976562 4.37016 L0.0976562 4.96094 L0.844688 4.96094 L0.844688 7.18266 L0.844688 9.40422 L0.0976562 9.40422 L0.0976562 10 Z"/>
  <path id="GlRokkitt83" d="M2.57328 10.0928 C3.68656 10.0928 4.44344 9.38469 4.44344 8.45703 C4.44344 8.00781 4.26766 7.56828 3.95516 7.27047 C3.05172 6.40625 1.14266 6.86516 1.14266 5.71781 C1.14266 5.25391 1.51859 4.91703 2.24609 4.91703 C2.79297 4.91703 3.19344 5.11234 3.50094 5.5175 C3.50094 5.57609 3.51078 5.96672 3.51078 5.96672 L4.14062 5.96672 L4.14062 4.37016 L3.49609 4.37016 C3.49609 4.37016 3.48641 4.6875 3.48141 4.68266 C3.11031 4.42375 2.66609 4.28219 2.19234 4.28219 C1.21094 4.28219 0.429688 4.80469 0.429688 5.80563 C0.429688 6.86031 1.17188 7.22172 2.06062 7.41203 C2.92969 7.60734 3.63766 7.77344 3.63766 8.46672 C3.63766 9.01859 3.19828 9.45797 2.50484 9.45797 C1.91891 9.45797 1.46969 9.16016 1.10844 8.62797 C1.10844 8.57422 1.09859 8.11031 1.09859 8.11031 L0.46875 8.11031 L0.46875 9.95109 C0.46875 9.95109 1.09375 9.95609 1.11328 9.96578 C1.11813 9.96578 1.12312 9.57516 1.12797 9.57516 C1.52828 9.91203 2.01656 10.0928 2.57328 10.0928 Z"/>
  <path id="GlRokkitt111" d="M2.35359 9.42375 C1.55766 9.42375 1.05469 8.83297 1.05469 8.03703 C1.05469 7.24125 1.55766 6.62594 2.35359 6.62594 C3.15922 6.62594 3.66219 7.24125 3.66219 8.03703 C3.66219 8.83297 3.15922 9.42375 2.35359 9.42375 L2.35359 9.42375 Z M2.35359 10.0928 C3.62797 10.0928 4.44344 9.165 4.44344 8.03703 C4.44344 6.90922 3.63281 6.00094 2.36328 6.00094 C1.08406 6.00094 0.278281 6.90922 0.278281 8.03703 C0.278281 9.165 1.08406 10.0928 2.35359 10.0928 Z"/>
 </defs>
 <g id="Background">
  <g transform="translate(-1, 3)">
   <use style="fill:#414242;stroke:none;" xlink:href="#GlRokkitt72" transform="matrix(19 0 0 19 0 -81.3523)"/>
   <use style="fill:#414242;stroke:none;" xlink:href="#GlRokkitt97" transform="matrix(19 0 0 19 118.472 -81.3523)"/>
   <use style="fill:#414242;stroke:none;" xlink:href="#GlRokkitt99" transform="matrix(19 0 0 19 200.947 -81.3523)"/>
   <use style="fill:#414242;stroke:none;" xlink:href="#GlRokkitt107" transform="matrix(19 0 0 19 284.351 -81.3523)"/>
   <use style="fill:#414242;stroke:none;" xlink:href="#GlRokkitt83" transform="matrix(19 0 0 19 376.66 -81.3523)"/>
   <use style="fill:#414242;stroke:none;" xlink:href="#GlRokkitt111" transform="matrix(19 0 0 19 466.836 -81.3523)"/>
   <use style="fill:#414242;stroke:none;" xlink:href="#GlRokkitt99" transform="matrix(19 0 0 19 556.455 -81.3523)"/>
   <path style="fill:none; stroke:none;" d="M0 0 L1110.84 0 L1110.84 159.477 L0 159.477 L0 0 Z"/>
  </g>
 </g>
 <g id="Underline">
  <path style="stroke:#414242; stroke-width:12; stroke-linecap:round; stroke-linejoin:miter; stroke-dasharray:none;" d="M 0 0 L 48 0" transform="translate(121.25, 137.25)"/>
  <path style="stroke:#26537c; stroke-width:12; stroke-linecap:round; stroke-linejoin:miter; stroke-dasharray:none;" d="M 0 0 L 290 0" transform="translate(195.25, 137.25)"/>
  <path style="stroke:#414242; stroke-width:12; stroke-linecap:round; stroke-linejoin:miter; stroke-dasharray:none;" d="M 0 0 L 110 0" transform="translate(511.25, 137.25)"/>
 </g>
</svg>
