<?xml version="1.0" encoding="UTF-8"?>
<svg width="633pt" version="1.1" xmlns="http://www.w3.org/2000/svg" height="290pt" viewBox="0 0 633 290" xmlns:xlink="http://www.w3.org/1999/xlink">
 <defs>
  <path id="GlBitstreamVeraSans-Bold49" d="M1.17188 8.70109 L2.83203 8.70109 L2.83203 3.98922 L1.12797 4.34078 L1.12797 3.06156 L2.82234 2.71 L4.60938 2.71 L4.60938 8.70109 L6.26953 8.70109 L6.26953 10 L1.17188 10 L1.17188 8.70109 Z"/>
  <path id="GlBitstreamVeraSans-Bold48" d="M4.59969 6.34766 C4.59969 6.34766 4.59969 4.98047 4.34328 4.42141 C4.34328 4.42141 4.08688 3.86234 3.48141 3.86234 C3.48141 3.86234 2.87594 3.86234 2.61719 4.42141 C2.61719 4.42141 2.35844 4.98047 2.35844 6.34766 C2.35844 6.34766 2.35844 7.72953 2.61719 8.29594 C2.61719 8.29594 2.87594 8.86234 3.48141 8.86234 C3.48141 8.86234 4.08203 8.86234 4.34078 8.29594 C4.34078 8.29594 4.59969 7.72953 4.59969 6.34766 L4.59969 6.34766 Z M6.47953 6.36234 C6.47953 6.36234 6.47953 8.17375 5.69828 9.15766 C5.69828 9.15766 4.91703 10.1416 3.48141 10.1416 C3.48141 10.1416 2.04109 10.1416 1.25984 9.15766 C1.25984 9.15766 0.478594 8.17375 0.478594 6.36234 C0.478594 6.36234 0.478594 4.54594 1.25984 3.56203 C1.25984 3.56203 2.04109 2.57812 3.48141 2.57812 C3.48141 2.57812 4.91703 2.57812 5.69828 3.56203 C5.69828 3.56203 6.47953 4.54594 6.47953 6.36234 Z"/>
  <path id="GlBitstreamVeraSans-Bold89" d="M-0.0976562 2.71 L1.95797 2.71 L3.61813 5.30766 L5.27828 2.71 L7.33891 2.71 L4.56062 6.92875 L4.56062 10 L2.68063 10 L2.68063 6.92875 L-0.0976562 2.71 Z"/>
  <path id="GlBitstreamVeraSans-Bold101" d="M6.29891 7.25094 L6.29891 7.74906 L2.21188 7.74906 C2.21188 7.74906 2.27547 8.36422 2.65625 8.67188 C2.65625 8.67188 3.03719 8.97953 3.72078 8.97953 C3.72078 8.97953 4.2725 8.97953 4.85109 8.81594 C4.85109 8.81594 5.42969 8.65234 6.04 8.32031 L6.04 9.66797 C6.04 9.66797 5.42 9.90234 4.79984 10.0219 C4.79984 10.0219 4.17969 10.1416 3.55953 10.1416 C3.55953 10.1416 2.07516 10.1416 1.25234 9.38719 C1.25234 9.38719 0.429688 8.63281 0.429688 7.27047 C0.429688 7.27047 0.429688 5.93266 1.23781 5.16609 C1.23781 5.16609 2.04594 4.39938 3.46188 4.39938 C3.46188 4.39938 4.75094 4.39938 5.52484 5.17578 C5.52484 5.17578 6.29891 5.95219 6.29891 7.25094 L6.29891 7.25094 Z M4.50203 6.66984 C4.50203 6.66984 4.50203 6.17188 4.21141 5.86672 C4.21141 5.86672 3.92094 5.56156 3.45219 5.56156 C3.45219 5.56156 2.94437 5.56156 2.62688 5.84719 C2.62688 5.84719 2.30953 6.13281 2.23141 6.66984 L4.50203 6.66984 Z"/>
  <path id="GlBitstreamVeraSans-Bold97" d="M3.29109 7.53906 C3.29109 7.53906 2.74422 7.53906 2.46828 7.72469 C2.46828 7.72469 2.19234 7.91016 2.19234 8.27141 C2.19234 8.27141 2.19234 8.60344 2.41453 8.79156 C2.41453 8.79156 2.63672 8.97953 3.03219 8.97953 C3.03219 8.97953 3.52547 8.97953 3.86234 8.62547 C3.86234 8.62547 4.19922 8.27141 4.19922 7.73922 L4.19922 7.53906 L3.29109 7.53906 L3.29109 7.53906 Z M5.96188 6.87984 L5.96188 10 L4.19922 10 L4.19922 9.18938 C4.19922 9.18938 3.84766 9.6875 3.40813 9.91453 C3.40813 9.91453 2.96875 10.1416 2.33891 10.1416 C2.33891 10.1416 1.48922 10.1416 0.959375 9.64594 C0.959375 9.64594 0.429688 9.15031 0.429688 8.35938 C0.429688 8.35938 0.429688 7.3975 1.09125 6.94828 C1.09125 6.94828 1.75297 6.49906 3.16891 6.49906 L4.19922 6.49906 L4.19922 6.36234 C4.19922 6.36234 4.19922 5.94719 3.87203 5.75437 C3.87203 5.75437 3.545 5.56156 2.85156 5.56156 C2.85156 5.56156 2.29 5.56156 1.80656 5.67391 C1.80656 5.67391 1.32328 5.78609 0.908281 6.01078 L0.908281 4.67766 C0.908281 4.67766 1.46969 4.54094 2.03609 4.47016 C2.03609 4.47016 2.6025 4.39938 3.16891 4.39938 C3.16891 4.39938 4.64844 4.39938 5.30516 4.98297 C5.30516 4.98297 5.96188 5.56641 5.96188 6.87984 Z"/>
  <path id="GlBitstreamVeraSans-Bold114" d="M4.90234 6.02047 C4.90234 6.02047 4.67281 5.91312 4.44578 5.86187 C4.44578 5.86187 4.21875 5.81047 3.98922 5.81047 C3.98922 5.81047 3.31547 5.81047 2.95172 6.24266 C2.95172 6.24266 2.58797 6.67484 2.58797 7.48047 L2.58797 10 L0.839844 10 L0.839844 4.53125 L2.58797 4.53125 L2.58797 5.42969 C2.58797 5.42969 2.92484 4.8925 3.36187 4.64594 C3.36187 4.64594 3.79891 4.39938 4.40922 4.39938 C4.40922 4.39938 4.49703 4.39938 4.59953 4.40672 C4.59953 4.40672 4.70219 4.41406 4.8975 4.43844 L4.90234 6.02047 Z"/>
  <path id="GlBitstreamVeraSans-Bold115" d="M5.11234 4.70219 L5.11234 6.03031 C5.11234 6.03031 4.55078 5.79594 4.02828 5.67875 C4.02828 5.67875 3.50594 5.56156 3.04203 5.56156 C3.04203 5.56156 2.54391 5.56156 2.30219 5.68609 C2.30219 5.68609 2.06062 5.81047 2.06062 6.06937 C2.06062 6.06937 2.06062 6.27922 2.24359 6.39156 C2.24359 6.39156 2.42672 6.50391 2.90047 6.55766 L3.20797 6.60156 C3.20797 6.60156 4.55078 6.7725 5.01469 7.16312 C5.01469 7.16312 5.47859 7.55375 5.47859 8.38859 C5.47859 8.38859 5.47859 9.26266 4.83406 9.70219 C4.83406 9.70219 4.18953 10.1416 2.91016 10.1416 C2.91016 10.1416 2.36813 10.1416 1.78953 10.0561 C1.78953 10.0561 1.21094 9.97063 0.600625 9.79984 L0.600625 8.47172 C0.600625 8.47172 1.12312 8.72563 1.67234 8.85266 C1.67234 8.85266 2.22172 8.97953 2.78812 8.97953 C2.78812 8.97953 3.30078 8.97953 3.55953 8.83797 C3.55953 8.83797 3.81844 8.69625 3.81844 8.41797 C3.81844 8.41797 3.81844 8.18359 3.64016 8.06891 C3.64016 8.06891 3.46188 7.95406 2.92969 7.89062 L2.62203 7.85156 C2.62203 7.85156 1.45516 7.705 0.986406 7.30953 C0.986406 7.30953 0.517656 6.91406 0.517656 6.10844 C0.517656 6.10844 0.517656 5.23922 1.11328 4.81937 C1.11328 4.81937 1.70906 4.39938 2.93953 4.39938 C2.93953 4.39938 3.42281 4.39938 3.955 4.47266 C3.955 4.47266 4.48734 4.54594 5.11234 4.70219 Z"/>
  <path id="GlBitstreamVeraSans-Bold79" d="M4.24812 3.94047 C4.24812 3.94047 3.38875 3.94047 2.915 4.57531 C2.915 4.57531 2.44141 5.21 2.44141 6.36234 C2.44141 6.36234 2.44141 7.50969 2.915 8.14453 C2.915 8.14453 3.38875 8.77922 4.24812 8.77922 C4.24812 8.77922 5.11234 8.77922 5.58594 8.14453 C5.58594 8.14453 6.05953 7.50969 6.05953 6.36234 C6.05953 6.36234 6.05953 5.21 5.58594 4.57531 C5.58594 4.57531 5.11234 3.94047 4.24812 3.94047 L4.24812 3.94047 Z M4.24812 2.57812 C4.24812 2.57812 6.00594 2.57812 7.00203 3.58406 C7.00203 3.58406 7.99812 4.58984 7.99812 6.36234 C7.99812 6.36234 7.99812 8.12984 7.00203 9.13578 C7.00203 9.13578 6.00594 10.1416 4.24812 10.1416 C4.24812 10.1416 2.49516 10.1416 1.49656 9.13578 C1.49656 9.13578 0.498125 8.12984 0.498125 6.36234 C0.498125 6.36234 0.498125 4.58984 1.49656 3.58406 C1.49656 3.58406 2.49516 2.57812 4.24812 2.57812 Z"/>
  <path id="GlBitstreamVeraSans-Bold102" d="M4.43844 2.40234 L4.43844 3.54984 L3.47172 3.54984 C3.47172 3.54984 3.10062 3.54984 2.95406 3.68406 C2.95406 3.68406 2.80766 3.81828 2.80766 4.15031 L2.80766 4.53125 L4.30172 4.53125 L4.30172 5.78125 L2.80766 5.78125 L2.80766 10 L1.05953 10 L1.05953 5.78125 L0.190469 5.78125 L0.190469 4.53125 L1.05953 4.53125 L1.05953 4.15031 C1.05953 4.15031 1.05953 3.25687 1.5575 2.82969 C1.5575 2.82969 2.05563 2.40234 3.10062 2.40234 L4.43844 2.40234 Z"/>
  <path id="GlBitstreamVeraSans-Bold69" d="M0.917969 2.71 L5.99125 2.71 L5.99125 4.13078 L2.79781 4.13078 L2.79781 5.48828 L5.80078 5.48828 L5.80078 6.90922 L2.79781 6.90922 L2.79781 8.57906 L6.09859 8.57906 L6.09859 10 L0.917969 10 L0.917969 2.71 Z"/>
  <path id="GlBitstreamVeraSans-Bold116" d="M2.74906 2.97844 L2.74906 4.53125 L4.55078 4.53125 L4.55078 5.78125 L2.74906 5.78125 L2.74906 8.10063 C2.74906 8.10063 2.74906 8.48141 2.90031 8.61578 C2.90031 8.61578 3.05172 8.75 3.50094 8.75 L4.39938 8.75 L4.39938 10 L2.90047 10 C2.90047 10 1.86531 10 1.43312 9.56797 C1.43312 9.56797 1.00094 9.13578 1.00094 8.10063 L1.00094 5.78125 L0.131875 5.78125 L0.131875 4.53125 L1.00094 4.53125 L1.00094 2.97844 L2.74906 2.97844 Z"/>
  <path id="GlBitstreamVeraSans-Bold98" d="M3.75 8.87203 C3.75 8.87203 4.31156 8.87203 4.60688 8.46187 C4.60688 8.46187 4.90234 8.05172 4.90234 7.27047 C4.90234 7.27047 4.90234 6.48922 4.60688 6.07906 C4.60688 6.07906 4.31156 5.66891 3.75 5.66891 C3.75 5.66891 3.18844 5.66891 2.88813 6.08156 C2.88813 6.08156 2.58797 6.49406 2.58797 7.27047 C2.58797 7.27047 2.58797 8.04688 2.88813 8.45953 C2.88813 8.45953 3.18844 8.87203 3.75 8.87203 L3.75 8.87203 Z M2.58797 5.33203 C2.58797 5.33203 2.94922 4.85344 3.38859 4.62641 C3.38859 4.62641 3.82812 4.39938 4.39938 4.39938 C4.39938 4.39938 5.41016 4.39938 6.05953 5.20266 C6.05953 5.20266 6.70906 6.00578 6.70906 7.27047 C6.70906 7.27047 6.70906 8.53516 6.05953 9.33844 C6.05953 9.33844 5.41016 10.1416 4.39938 10.1416 C4.39938 10.1416 3.82812 10.1416 3.38859 9.91453 C3.38859 9.91453 2.94922 9.6875 2.58797 9.20891 L2.58797 10 L0.839844 10 L0.839844 2.40234 L2.58797 2.40234 L2.58797 5.33203 Z"/>
  <path id="GlBitstreamVeraSans-Bold108" d="M0.839844 2.40234 L2.58797 2.40234 L2.58797 10 L0.839844 10 L0.839844 2.40234 Z"/>
  <path id="GlBitstreamVeraSans-Bold105" d="M0.839844 4.53125 L2.58797 4.53125 L2.58797 10 L0.839844 10 L0.839844 4.53125 L0.839844 4.53125 Z M0.839844 2.40234 L2.58797 2.40234 L2.58797 3.82812 L0.839844 3.82812 L0.839844 2.40234 Z"/>
  <path id="GlBitstreamVeraSans-Bold104" d="M6.33797 6.66984 L6.33797 10 L4.58016 10 L4.58016 9.45797 L4.58016 7.46094 C4.58016 7.46094 4.58016 6.74313 4.54828 6.47469 C4.54828 6.47469 4.51656 6.20609 4.43844 6.07906 C4.43844 6.07906 4.33594 5.90813 4.16016 5.81297 C4.16016 5.81297 3.98438 5.71781 3.75984 5.71781 C3.75984 5.71781 3.21297 5.71781 2.90047 6.14016 C2.90047 6.14016 2.58797 6.5625 2.58797 7.30953 L2.58797 10 L0.839844 10 L0.839844 2.40234 L2.58797 2.40234 L2.58797 5.33203 C2.58797 5.33203 2.98344 4.85344 3.42766 4.62641 C3.42766 4.62641 3.87203 4.39938 4.40922 4.39938 C4.40922 4.39938 5.35641 4.39938 5.84719 4.98047 C5.84719 4.98047 6.33797 5.56156 6.33797 6.66984 Z"/>
  <path id="GlBitstreamVeraSans-Bold100" d="M4.56062 5.33203 L4.56062 2.40234 L6.31844 2.40234 L6.31844 10 L4.56062 10 L4.56062 9.20891 C4.56062 9.20891 4.19922 9.69234 3.76469 9.91703 C3.76469 9.91703 3.33016 10.1416 2.75875 10.1416 C2.75875 10.1416 1.74812 10.1416 1.09859 9.33844 C1.09859 9.33844 0.449219 8.53516 0.449219 7.27047 C0.449219 7.27047 0.449219 6.00578 1.09859 5.20266 C1.09859 5.20266 1.74812 4.39938 2.75875 4.39938 C2.75875 4.39938 3.32516 4.39938 3.76219 4.62641 C3.76219 4.62641 4.19922 4.85344 4.56062 5.33203 L4.56062 5.33203 Z M3.40828 8.87203 C3.40828 8.87203 3.96969 8.87203 4.26516 8.46187 C4.26516 8.46187 4.56062 8.05172 4.56062 7.27047 C4.56062 7.27047 4.56062 6.48922 4.26516 6.07906 C4.26516 6.07906 3.96969 5.66891 3.40828 5.66891 C3.40828 5.66891 2.85156 5.66891 2.55609 6.07906 C2.55609 6.07906 2.26078 6.48922 2.26078 7.27047 C2.26078 7.27047 2.26078 8.05172 2.55609 8.46187 C2.55609 8.46187 2.85156 8.87203 3.40828 8.87203 Z"/>
  <path id="GlBitstreamVeraSans-Bold50" d="M2.88094 8.61812 L6.08891 8.61812 L6.08891 10 L0.791094 10 L0.791094 8.61812 L3.45219 6.26953 C3.45219 6.26953 3.80859 5.94719 3.97953 5.63969 C3.97953 5.63969 4.15047 5.33203 4.15047 5 C4.15047 5 4.15047 4.48734 3.80609 4.17484 C3.80609 4.17484 3.46188 3.86234 2.89062 3.86234 C2.89062 3.86234 2.45125 3.86234 1.92875 4.05031 C1.92875 4.05031 1.40625 4.23828 0.810625 4.60938 L0.810625 3.00781 C0.810625 3.00781 1.44531 2.79781 2.06547 2.68797 C2.06547 2.68797 2.68562 2.57812 3.28125 2.57812 C3.28125 2.57812 4.58984 2.57812 5.31484 3.15437 C5.31484 3.15437 6.04 3.73047 6.04 4.76078 C6.04 4.76078 6.04 5.35641 5.73234 5.87156 C5.73234 5.87156 5.42484 6.38672 4.43844 7.25094 L2.88094 8.61812 Z"/>
  <path id="GlBitstreamVeraSans-Bold53" d="M1.05953 2.71 L5.7325 2.71 L5.7325 4.09172 L2.55859 4.09172 L2.55859 5.21969 C2.55859 5.21969 2.77344 5.16109 2.99063 5.12937 C2.99063 5.12937 3.20797 5.09766 3.44234 5.09766 C3.44234 5.09766 4.77547 5.09766 5.51766 5.76422 C5.51766 5.76422 6.25984 6.43063 6.25984 7.62203 C6.25984 7.62203 6.25984 8.80375 5.45172 9.47266 C5.45172 9.47266 4.64359 10.1416 3.20797 10.1416 C3.20797 10.1416 2.58797 10.1416 1.98 10.0219 C1.98 10.0219 1.37203 9.90234 0.771563 9.65813 L0.771563 8.17875 C0.771563 8.17875 1.36719 8.52047 1.90187 8.69141 C1.90187 8.69141 2.43656 8.86234 2.91016 8.86234 C2.91016 8.86234 3.59375 8.86234 3.98672 8.52781 C3.98672 8.52781 4.37984 8.19328 4.37984 7.62203 C4.37984 7.62203 4.37984 7.04594 3.98672 6.71391 C3.98672 6.71391 3.59375 6.38187 2.91016 6.38187 C2.91016 6.38187 2.50484 6.38187 2.04578 6.48687 C2.04578 6.48687 1.58688 6.59172 1.05953 6.81156 L1.05953 2.71 Z"/>
  <path id="GlRokkitt72" d="M0.351562 10 L2.51469 10 L2.51469 9.38469 L1.81641 9.38469 L1.81641 7.37297 L4.50687 7.37297 L4.50687 9.37984 L3.80859 9.37984 L3.80859 10 L5.96687 10 L5.96687 9.38969 L5.28812 9.38969 L5.28812 7.18266 L5.28812 4.99016 L5.96687 4.99016 L5.96687 4.37016 L3.80859 4.37016 L3.80859 4.98531 L4.50203 4.98531 L4.50203 6.74313 L1.81156 6.74313 L1.81156 4.99016 L2.51469 4.99016 L2.51469 4.37016 L0.351562 4.37016 L0.351562 4.97562 L1.03031 4.97562 L1.03031 7.18266 L1.03031 9.37984 L0.351562 9.37984 L0.351562 10 Z"/>
  <path id="GlRokkitt97" d="M1.59672 10.1075 C2.085 10.1075 2.45609 9.97063 2.97359 9.59469 C2.97859 9.59469 2.98344 10 2.98344 10 L4.33594 10 L4.33594 9.40922 L3.63281 9.40922 L3.63281 7.29484 C3.63281 6.62594 3.27641 6.00094 2.04594 6.00094 C1.24031 6.00094 0.659219 6.28422 0.361406 6.79688 L1.045 6.98734 C1.23047 6.71875 1.54781 6.57719 1.94828 6.57719 C2.46578 6.57719 2.90531 6.78219 2.90531 7.32906 L2.90531 7.80266 C2.58797 7.73922 2.26562 7.705 1.96297 7.705 C1.03516 7.705 0.268594 7.97359 0.268594 8.94531 C0.268594 9.54594 0.771563 10.1075 1.59672 10.1075 L1.59672 10.1075 Z M2.90531 9.13078 C2.6075 9.39937 2.12891 9.56547 1.69922 9.56547 C1.22078 9.56547 0.957031 9.28703 0.957031 8.94531 C0.957031 8.30562 1.49906 8.20312 2.01172 8.20312 C2.36328 8.20312 2.69531 8.27641 2.90531 8.28125 L2.90531 9.13078 Z"/>
  <path id="GlRokkitt99" d="M2.29984 10.0928 C3.16406 10.0928 3.80859 9.73625 4.10641 9.08203 L3.51562 8.81344 C3.27156 9.24312 2.84187 9.46281 2.31937 9.46281 C1.51375 9.46281 1.05469 8.85734 1.05469 7.99797 C1.05469 7.20703 1.49422 6.63078 2.29984 6.63078 C2.96391 6.63078 3.27156 6.90922 3.37406 7.47562 L4.00391 7.47562 L4.00391 6.06937 L3.35453 6.06937 L3.34969 6.42094 C3.125 6.09859 2.67094 6.00094 2.24609 6.00094 C1.05953 6.00094 0.278281 6.95312 0.278281 8.00781 C0.278281 8.96484 0.869219 10.0928 2.29984 10.0928 Z"/>
  <path id="GlRokkitt107" d="M0.0976562 10 L2.07516 10 L2.07516 9.40422 L1.56734 9.40422 L1.56734 8.0225 L3.13969 9.40422 L2.62203 9.40422 L2.62203 10 L4.67781 10 L4.67781 9.40422 L4.04297 9.40422 L2.41219 7.97359 L4.03328 6.62594 L4.67781 6.62594 L4.67781 6.06937 L2.49031 6.06937 L2.49031 6.62594 L3.17391 6.62594 L1.56734 7.90031 L1.56734 4.37016 L0.0976562 4.37016 L0.0976562 4.96094 L0.844688 4.96094 L0.844688 7.18266 L0.844688 9.40422 L0.0976562 9.40422 L0.0976562 10 Z"/>
  <path id="GlRokkitt83" d="M2.57328 10.0928 C3.68656 10.0928 4.44344 9.38469 4.44344 8.45703 C4.44344 8.00781 4.26766 7.56828 3.95516 7.27047 C3.05172 6.40625 1.14266 6.86516 1.14266 5.71781 C1.14266 5.25391 1.51859 4.91703 2.24609 4.91703 C2.79297 4.91703 3.19344 5.11234 3.50094 5.5175 C3.50094 5.57609 3.51078 5.96672 3.51078 5.96672 L4.14062 5.96672 L4.14062 4.37016 L3.49609 4.37016 C3.49609 4.37016 3.48641 4.6875 3.48141 4.68266 C3.11031 4.42375 2.66609 4.28219 2.19234 4.28219 C1.21094 4.28219 0.429688 4.80469 0.429688 5.80563 C0.429688 6.86031 1.17188 7.22172 2.06062 7.41203 C2.92969 7.60734 3.63766 7.77344 3.63766 8.46672 C3.63766 9.01859 3.19828 9.45797 2.50484 9.45797 C1.91891 9.45797 1.46969 9.16016 1.10844 8.62797 C1.10844 8.57422 1.09859 8.11031 1.09859 8.11031 L0.46875 8.11031 L0.46875 9.95109 C0.46875 9.95109 1.09375 9.95609 1.11328 9.96578 C1.11813 9.96578 1.12312 9.57516 1.12797 9.57516 C1.52828 9.91203 2.01656 10.0928 2.57328 10.0928 Z"/>
  <path id="GlRokkitt111" d="M2.35359 9.42375 C1.55766 9.42375 1.05469 8.83297 1.05469 8.03703 C1.05469 7.24125 1.55766 6.62594 2.35359 6.62594 C3.15922 6.62594 3.66219 7.24125 3.66219 8.03703 C3.66219 8.83297 3.15922 9.42375 2.35359 9.42375 L2.35359 9.42375 Z M2.35359 10.0928 C3.62797 10.0928 4.44344 9.165 4.44344 8.03703 C4.44344 6.90922 3.63281 6.00094 2.36328 6.00094 C1.08406 6.00094 0.278281 6.90922 0.278281 8.03703 C0.278281 9.165 1.08406 10.0928 2.35359 10.0928 Z"/>
  <path id="GlSanchez-Regular116" d="M3.48 9.18 C3.43 9.12 3.37 9.11 3.3 9.17 C3.26 9.21 3.07 9.36 2.77 9.36 C2.23 9.36 1.91 9.02 1.91 8.35 L1.91 5.75 L3.18 5.75 C3.26 5.75 3.32 5.7 3.32 5.62 L3.32 5.21 C3.32 5.13 3.26 5.08 3.18 5.08 L1.91 5.08 L1.91 4.07 C1.91 3.99 1.86 3.93 1.78 3.93 L1.22 3.93 C1.14 3.93 1.08 3.99 1.08 4.07 L1.08 5.08 L0.52 5.08 C0.44 5.08 0.38 5.13 0.38 5.21 L0.38 5.62 C0.38 5.7 0.44 5.75 0.52 5.75 L1.08 5.75 L1.08 8.37 C1.08 9.5 1.69 10.07 2.69 10.07 C3.28 10.07 3.61 9.76 3.7 9.68 C3.76 9.62 3.78 9.55 3.72 9.49 L3.48 9.18 Z"/>
  <path id="GlSanchez-Regular104" d="M5.7 10 C5.78 10 5.83 9.96 5.83 9.88 L5.83 9.45 C5.83 9.37 5.78 9.33 5.7 9.33 L5.14 9.33 L5.14 6.75 C5.13 5.7 4.51 5.01 3.43 5.01 C2.49 5.01 2.05 5.5 1.87 5.78 L1.85 5.78 C1.86 5.71 1.89 5.32 1.89 5.17 L1.89 2.94 C1.89 2.86 1.85 2.82 1.77 2.82 L0.51 2.82 C0.43 2.82 0.38 2.86 0.38 2.94 L0.38 3.37 C0.38 3.45 0.43 3.49 0.51 3.49 L1.06 3.49 L1.06 9.33 L0.51 9.33 C0.43 9.33 0.38 9.37 0.38 9.45 L0.38 9.88 C0.38 9.96 0.43 10 0.51 10 L2.42 10 C2.5 10 2.55 9.96 2.55 9.88 L2.55 9.45 C2.55 9.37 2.5 9.33 2.42 9.33 L1.89 9.33 L1.89 6.59 C1.89 6.6 2.2 5.73 3.22 5.73 C3.96 5.73 4.32 6.2 4.32 6.95 L4.32 9.58 C4.32 9.89 4.46 10 4.75 10 L5.7 10 Z"/>
  <path id="GlSanchez-Regular101" d="M4.83 7.64 C4.92 7.64 4.97 7.59 4.97 7.51 C5 5.96 4.17 5.01 2.74 5.01 C1.54 5.01 0.38 5.9 0.38 7.52 C0.38 9.12 1.49 10.07 2.84 10.07 C4.16 10.07 4.84 9.24 4.97 9.02 C5.01 8.96 5 8.9 4.93 8.84 L4.66 8.57 C4.59 8.52 4.53 8.53 4.48 8.6 C4.34 8.83 3.75 9.37 2.89 9.37 C2.1 9.37 1.28 8.81 1.23 7.64 L4.83 7.64 L4.83 7.64 Z M1.25 7.03 C1.37 6.07 2.07 5.67 2.76 5.67 C3.62 5.67 4.1 6.22 4.14 7.03 L1.25 7.03 Z"/>
  <path id="GlSanchez-Regular99" d="M4.65 8.56 C4.59 8.51 4.52 8.52 4.48 8.59 C4.34 8.82 3.75 9.37 2.89 9.37 C2.06 9.37 1.22 8.72 1.22 7.53 C1.22 6.33 2.11 5.71 2.86 5.71 C3.73 5.71 4.27 6.3 4.28 6.73 L4.28 6.9 C4.28 6.98 4.33 7.02 4.4 7.02 L4.86 7.02 C4.93 7.02 4.98 6.98 4.98 6.9 L4.98 5.2 C4.98 5.12 4.94 5.07 4.86 5.07 L4.48 5.07 C4.4 5.07 4.35 5.12 4.35 5.2 L4.36 5.75 L4.35 5.75 C4.14 5.45 3.67 5.01 2.76 5.01 C1.55 5.01 0.38 5.9 0.38 7.52 C0.38 9.12 1.49 10.07 2.84 10.07 C4.16 10.07 4.85 9.24 4.97 9.02 C5.01 8.96 5.01 8.9 4.94 8.84 L4.65 8.56 Z"/>
  <path id="GlSanchez-Regular111" d="M2.87 10.07 C4.3 10.07 5.36 9.08 5.36 7.52 C5.36 5.96 4.27 5.01 2.88 5.01 C1.49 5.01 0.38 5.94 0.38 7.52 C0.38 9.09 1.45 10.07 2.87 10.07 L2.87 10.07 Z M2.87 9.37 C1.98 9.37 1.22 8.66 1.22 7.53 C1.22 6.39 2.01 5.71 2.88 5.71 C3.74 5.71 4.53 6.39 4.53 7.53 C4.53 8.66 3.77 9.37 2.87 9.37 Z"/>
  <path id="GlSanchez-Regular109" d="M8.8 10 C8.88 10 8.93 9.96 8.93 9.88 L8.93 9.45 C8.93 9.37 8.88 9.33 8.8 9.33 L8.24 9.33 L8.23 6.75 C8.23 5.7 7.62 5.01 6.54 5.01 C5.51 5.01 5.08 5.62 4.93 5.84 C4.68 5.32 4.16 5.01 3.44 5.01 C2.36 5.01 1.94 5.68 1.82 5.88 L1.79 5.88 L1.81 5.38 C1.81 5.14 1.71 5.08 1.49 5.08 L0.51 5.08 C0.43 5.08 0.38 5.12 0.38 5.2 L0.38 5.63 C0.38 5.71 0.43 5.75 0.51 5.75 L1.06 5.75 L1.06 9.33 L0.51 9.33 C0.43 9.33 0.38 9.37 0.38 9.45 L0.38 9.88 C0.38 9.96 0.43 10 0.51 10 L2.38 10 C2.45 10 2.5 9.96 2.5 9.88 L2.5 9.45 C2.5 9.37 2.46 9.33 2.38 9.33 L1.89 9.33 L1.89 6.59 C1.89 6.6 2.2 5.73 3.22 5.73 C3.96 5.73 4.32 6.2 4.32 6.95 L4.32 9.33 L3.79 9.33 C3.71 9.33 3.66 9.37 3.66 9.45 L3.66 9.88 C3.66 9.96 3.71 10 3.79 10 L5.7 10 C5.77 10 5.82 9.96 5.82 9.88 L5.82 9.45 C5.82 9.37 5.78 9.33 5.7 9.33 L5.14 9.33 L5.14 6.82 C5.14 6.69 5.12 6.54 5.08 6.42 C5.23 6.19 5.58 5.73 6.32 5.73 C7.06 5.73 7.41 6.2 7.41 6.95 L7.41 9.58 C7.41 9.89 7.55 10 7.85 10 L8.8 10 Z"/>
  <path id="GlSanchez-Regular112" d="M2.52 12.25 C2.6 12.25 2.65 12.21 2.65 12.13 L2.65 11.7 C2.65 11.62 2.6 11.58 2.52 11.58 L1.87 11.58 L1.87 9.55 C1.87 9.41 1.84 9.09 1.84 9.09 L1.87 9.09 C2.08 9.57 2.61 10.07 3.5 10.07 C4.87 10.07 5.74 9.01 5.74 7.53 C5.74 5.99 4.82 5.01 3.49 5.01 C2.59 5.01 2.05 5.52 1.83 5.99 L1.82 5.99 L1.83 5.2 C1.83 5.12 1.78 5.08 1.7 5.08 L0.53 5.08 C0.45 5.08 0.4 5.12 0.4 5.2 L0.4 5.63 C0.4 5.71 0.45 5.75 0.53 5.75 L1.07 5.75 L1.07 11.58 L0.51 11.58 C0.43 11.58 0.38 11.62 0.38 11.7 L0.38 12.13 C0.38 12.21 0.43 12.25 0.51 12.25 L2.52 12.25 L2.52 12.25 Z M3.38 9.37 C2.61 9.37 1.85 8.75 1.85 7.62 C1.85 6.3 2.62 5.71 3.38 5.71 C4.25 5.71 4.92 6.41 4.92 7.55 C4.92 8.65 4.26 9.37 3.38 9.37 Z"/>
  <path id="GlSanchez-Regular117" d="M5.57 10 C5.65 10 5.7 9.96 5.7 9.88 L5.7 9.45 C5.7 9.37 5.65 9.33 5.57 9.33 L5.01 9.33 L5.01 5.2 C5.01 5.12 4.97 5.08 4.89 5.08 L3.65 5.08 C3.58 5.08 3.53 5.12 3.53 5.2 L3.53 5.63 C3.53 5.71 3.57 5.75 3.65 5.75 L4.19 5.75 L4.19 8.5 C4.19 8.52 3.86 9.35 2.86 9.35 C2.12 9.35 1.76 8.88 1.76 8.13 L1.76 5.5 C1.76 5.19 1.62 5.08 1.33 5.08 L0.37 5.08 C0.3 5.08 0.25 5.12 0.25 5.2 L0.25 5.63 C0.25 5.71 0.29 5.75 0.37 5.75 L0.94 5.75 L0.94 8.33 C0.95 9.38 1.6 10.07 2.68 10.07 C3.76 10.07 4.13 9.44 4.24 9.21 L4.27 9.21 L4.27 9.58 C4.27 9.89 4.41 10 4.7 10 L5.57 10 Z"/>
  <path id="GlSanchez-Regular114" d="M2.42 10 C2.5 10 2.55 9.96 2.55 9.88 L2.55 9.45 C2.55 9.37 2.5 9.33 2.42 9.33 L1.89 9.33 L1.89 7.65 C1.89 6.79 2.56 5.85 3.77 5.85 L3.98 5.85 C4.06 5.85 4.11 5.8 4.11 5.72 L4.11 5.19 C4.11 5.11 4.06 5.06 3.98 5.06 C2.17 5.06 1.84 6.45 1.84 6.45 L1.81 6.45 L1.81 5.2 C1.81 5.12 1.76 5.08 1.68 5.08 L0.51 5.08 C0.43 5.08 0.38 5.12 0.38 5.2 L0.38 5.63 C0.38 5.71 0.43 5.75 0.51 5.75 L1.06 5.75 L1.06 9.33 L0.51 9.33 C0.43 9.33 0.38 9.37 0.38 9.45 L0.38 9.88 C0.38 9.96 0.43 10 0.51 10 L2.42 10 Z"/>
  <path id="GlSanchez-Regular115" d="M2.6 10.07 C3.93 10.07 4.44 9.39 4.44 8.66 C4.44 6.98 1.38 7.57 1.38 6.45 C1.38 5.94 1.84 5.67 2.33 5.67 C3.24 5.67 3.57 6.19 3.57 6.47 L3.57 6.61 C3.57 6.69 3.63 6.74 3.71 6.74 L4.1 6.74 C4.18 6.74 4.23 6.69 4.23 6.61 L4.23 5.22 C4.23 5.14 4.18 5.09 4.1 5.09 L3.78 5.09 C3.7 5.09 3.65 5.14 3.65 5.22 C3.65 5.23 3.67 5.59 3.67 5.59 L3.65 5.59 C3.41 5.27 2.98 5.01 2.23 5.01 C1.28 5.01 0.56 5.54 0.56 6.43 C0.56 8.17 3.57 7.65 3.57 8.64 C3.57 9.13 3.2 9.42 2.49 9.42 C1.36 9.42 1.08 8.57 1.08 8.57 L1.08 8.37 C1.08 8.29 1.02 8.24 0.94 8.24 L0.55 8.24 C0.47 8.24 0.42 8.29 0.42 8.37 L0.42 9.87 C0.42 9.95 0.47 10 0.55 10 L0.89 10 C0.97 10 1.03 9.95 1.03 9.87 C1.03 9.84 1.01 9.35 1.01 9.35 L1.03 9.35 C1.11 9.52 1.57 10.07 2.6 10.07 Z"/>
  <path id="GlSanchez-Regular105" d="M2.42 10 C2.5 10 2.55 9.96 2.55 9.88 L2.55 9.45 C2.55 9.37 2.5 9.33 2.42 9.33 L1.89 9.33 L1.89 5.2 C1.89 5.12 1.85 5.08 1.77 5.08 L0.51 5.08 C0.43 5.08 0.38 5.12 0.38 5.2 L0.38 5.63 C0.38 5.71 0.43 5.75 0.51 5.75 L1.06 5.75 L1.06 9.33 L0.51 9.33 C0.43 9.33 0.38 9.37 0.38 9.45 L0.38 9.88 C0.38 9.96 0.43 10 0.51 10 L2.42 10 L2.42 10 Z M2.02 4 C2.02 3.69 1.77 3.43 1.46 3.43 C1.15 3.43 0.9 3.69 0.9 4 C0.9 4.31 1.15 4.55 1.46 4.55 C1.77 4.55 2.02 4.31 2.02 4 Z"/>
  <path id="GlSanchez-Regular110" d="M5.7 10 C5.78 10 5.83 9.96 5.83 9.88 L5.83 9.45 C5.83 9.37 5.78 9.33 5.7 9.33 L5.14 9.33 L5.14 6.75 C5.13 5.7 4.51 5.01 3.43 5.01 C2.35 5.01 1.94 5.68 1.82 5.88 L1.79 5.88 L1.81 5.2 C1.81 5.12 1.76 5.08 1.68 5.08 L0.51 5.08 C0.43 5.08 0.38 5.12 0.38 5.2 L0.38 5.63 C0.38 5.71 0.43 5.75 0.51 5.75 L1.06 5.75 L1.06 9.33 L0.51 9.33 C0.43 9.33 0.38 9.37 0.38 9.45 L0.38 9.88 C0.38 9.96 0.43 10 0.51 10 L2.42 10 C2.5 10 2.55 9.96 2.55 9.88 L2.55 9.45 C2.55 9.37 2.5 9.33 2.42 9.33 L1.89 9.33 L1.89 6.58 C1.9 6.57 2.21 5.73 3.22 5.73 C3.96 5.73 4.32 6.2 4.32 6.95 L4.32 9.58 C4.32 9.89 4.46 10 4.75 10 L5.7 10 Z"/>
  <path id="GlSanchez-Regular121" d="M2.47 10.63 C2.21 11.34 1.98 11.63 1.47 11.63 C1.16 11.63 0.99 11.48 0.94 11.44 C0.87 11.39 0.82 11.4 0.76 11.45 L0.51 11.77 C0.46 11.83 0.48 11.89 0.54 11.95 C0.63 12.03 0.96 12.34 1.55 12.34 C2.5 12.34 2.86 11.7 3.25 10.64 L5.03 5.75 L5.59 5.75 C5.67 5.75 5.71 5.71 5.71 5.63 L5.71 5.2 C5.71 5.12 5.67 5.08 5.59 5.08 L3.73 5.08 C3.65 5.08 3.61 5.12 3.61 5.2 L3.61 5.63 C3.61 5.71 3.65 5.75 3.73 5.75 L4.18 5.75 L2.98 9.14 L2.96 9.14 L1.67 5.75 L2.08 5.75 C2.16 5.75 2.21 5.71 2.21 5.63 L2.21 5.2 C2.21 5.12 2.16 5.08 2.08 5.08 L0.27 5.08 C0.19 5.08 0.15 5.12 0.15 5.2 L0.15 5.63 C0.15 5.71 0.2 5.75 0.27 5.75 L0.82 5.75 L2.35 9.64 C2.42 9.82 2.48 9.89 2.61 9.89 L2.74 9.89 L2.47 10.63 Z"/>
 </defs>
 <g id="Background">
  <g id="Text1114" transform="translate(-24, 46.5)">
   <use style="fill:#747677;stroke:none;" xlink:href="#GlBitstreamVeraSans-Bold49" transform="matrix(6.27843 -1.2415 1.2415 6.27843 126.368 -42.7979)"/>
   <use style="fill:#747677;stroke:none;" xlink:href="#GlBitstreamVeraSans-Bold48" transform="matrix(6.34118 -0.865673 0.865673 6.34118 173.822 -52.0227)"/>
   <use style="fill:#747677;stroke:none;" xlink:href="#GlBitstreamVeraSans-Bold89" transform="matrix(6.38713 -0.405675 0.405675 6.38713 244.739 -60.5837)"/>
   <use style="fill:#747677;stroke:none;" xlink:href="#GlBitstreamVeraSans-Bold101" transform="matrix(6.39854 -0.136839 0.136839 6.39854 287.821 -63.2856)"/>
   <use style="fill:#747677;stroke:none;" xlink:href="#GlBitstreamVeraSans-Bold97" transform="matrix(6.39866 0.131043 -0.131043 6.39866 333.907 -64.2124)"/>
   <use style="fill:#747677;stroke:none;" xlink:href="#GlBitstreamVeraSans-Bold114" transform="matrix(6.38932 0.369529 -0.369529 6.38932 379.469 -63.1321)"/>
   <use style="fill:#747677;stroke:none;" xlink:href="#GlBitstreamVeraSans-Bold115" transform="matrix(6.37135 0.604908 -0.604908 6.37135 413.318 -61.1991)"/>
   <use style="fill:#747677;stroke:none;" xlink:href="#GlBitstreamVeraSans-Bold79" transform="matrix(6.29801 1.13799 -1.13799 6.29801 478.732 -54.2784)"/>
   <use style="fill:#747677;stroke:none;" xlink:href="#GlBitstreamVeraSans-Bold102" transform="matrix(6.21186 1.54038 -1.54038 6.21186 536.229 -43.3736)"/>
  </g>
  <g transform="translate(2, 226.103)">
   <use style="fill:#747677;stroke:none;" xlink:href="#GlBitstreamVeraSans-Bold69" transform="matrix(3.14422 0.594877 -0.594877 3.14422 154.939 13.7294)"/>
   <use style="fill:#747677;stroke:none;" xlink:href="#GlBitstreamVeraSans-Bold115" transform="matrix(3.1571 0.522235 -0.522235 3.1571 175.692 17.6482)"/>
   <use style="fill:#747677;stroke:none;" xlink:href="#GlBitstreamVeraSans-Bold116" transform="matrix(3.16665 0.460814 -0.460814 3.16665 193.867 20.6424)"/>
   <use style="fill:#747677;stroke:none;" xlink:href="#GlBitstreamVeraSans-Bold97" transform="matrix(3.17562 0.394218 -0.394218 3.17562 208.335 22.7885)"/>
   <use style="fill:#747677;stroke:none;" xlink:href="#GlBitstreamVeraSans-Bold98" transform="matrix(3.18467 0.312884 -0.312884 3.18467 228.96 25.3683)"/>
   <use style="fill:#747677;stroke:none;" xlink:href="#GlBitstreamVeraSans-Bold108" transform="matrix(3.1902 0.250229 -0.250229 3.1902 251.128 27.4939)"/>
   <use style="fill:#747677;stroke:none;" xlink:href="#GlBitstreamVeraSans-Bold105" transform="matrix(3.19315 0.209227 -0.209227 3.19315 261.659 28.3226)"/>
   <use style="fill:#747677;stroke:none;" xlink:href="#GlBitstreamVeraSans-Bold115" transform="matrix(3.19636 0.152682 -0.152682 3.19636 272.029 29.0432)"/>
   <use style="fill:#747677;stroke:none;" xlink:href="#GlBitstreamVeraSans-Bold104" transform="matrix(3.19917 0.0728174 -0.0728174 3.19917 290.26 29.9479)"/>
   <use style="fill:#747677;stroke:none;" xlink:href="#GlBitstreamVeraSans-Bold101" transform="matrix(3.19997 -0.0133747 0.0133747 3.19997 312.172 30.4518)"/>
   <use style="fill:#747677;stroke:none;" xlink:href="#GlBitstreamVeraSans-Bold100" transform="matrix(3.1984 -0.101148 0.101148 3.1984 333.003 30.3857)"/>
   <use style="fill:#747677;stroke:none;" xlink:href="#GlBitstreamVeraSans-Bold50" transform="matrix(3.19128 -0.236142 0.236142 3.19128 365.663 29.1421)"/>
   <use style="fill:#747677;stroke:none;" xlink:href="#GlBitstreamVeraSans-Bold48" transform="matrix(3.18328 -0.326699 0.326699 3.18328 386.963 27.5796)"/>
   <use style="fill:#747677;stroke:none;" xlink:href="#GlBitstreamVeraSans-Bold48" transform="matrix(3.17255 -0.418238 0.418238 3.17255 408.202 25.4139)"/>
   <use style="fill:#747677;stroke:none;" xlink:href="#GlBitstreamVeraSans-Bold53" transform="matrix(3.15901 -0.510556 0.510556 3.15901 429.353 22.6399)"/>
  </g>
  <g transform="translate(-5.55, 81.43)">
   <use style="fill:#414242;stroke:none;" xlink:href="#GlRokkitt72" transform="matrix(19 0 0 19 0 -81.3523)"/>
   <use style="fill:#414242;stroke:none;" xlink:href="#GlRokkitt97" transform="matrix(19 0 0 19 118.472 -81.3523)"/>
   <use style="fill:#414242;stroke:none;" xlink:href="#GlRokkitt99" transform="matrix(19 0 0 19 200.947 -81.3523)"/>
   <use style="fill:#414242;stroke:none;" xlink:href="#GlRokkitt107" transform="matrix(19 0 0 19 284.351 -81.3523)"/>
   <use style="fill:#414242;stroke:none;" xlink:href="#GlRokkitt83" transform="matrix(19 0 0 19 376.66 -81.3523)"/>
   <use style="fill:#414242;stroke:none;" xlink:href="#GlRokkitt111" transform="matrix(19 0 0 19 466.836 -81.3523)"/>
   <use style="fill:#414242;stroke:none;" xlink:href="#GlRokkitt99" transform="matrix(19 0 0 19 556.455 -81.3523)"/>
   <path style="fill:none; stroke:none;" d="M0 0 L645.648 0 L645.648 159.477 L0 159.477 L0 0 Z"/>
  </g>
  <g transform="translate(112.199, 200.831)">
   <use style="fill:#414242;stroke:none;" xlink:href="#GlSanchez-Regular116" transform="matrix(3.7 0 0 3.7 0 -10.424)"/>
   <use style="fill:#414242;stroke:none;" xlink:href="#GlSanchez-Regular104" transform="matrix(3.7 0 0 3.7 14.504 -10.424)"/>
   <use style="fill:#414242;stroke:none;" xlink:href="#GlSanchez-Regular101" transform="matrix(3.7 0 0 3.7 36.519 -10.424)"/>
   <use style="fill:#26537c;stroke:none;" xlink:href="#GlSanchez-Regular99" transform="matrix(3.7 0 0 3.7 68.006 -10.424)"/>
   <use style="fill:#26537c;stroke:none;" xlink:href="#GlSanchez-Regular111" transform="matrix(3.7 0 0 3.7 87.949 -10.424)"/>
   <use style="fill:#26537c;stroke:none;" xlink:href="#GlSanchez-Regular109" transform="matrix(3.7 0 0 3.7 109.113 -10.424)"/>
   <use style="fill:#26537c;stroke:none;" xlink:href="#GlSanchez-Regular112" transform="matrix(3.7 0 0 3.7 142.487 -10.424)"/>
   <use style="fill:#26537c;stroke:none;" xlink:href="#GlSanchez-Regular117" transform="matrix(3.7 0 0 3.7 164.502 -10.424)"/>
   <use style="fill:#26537c;stroke:none;" xlink:href="#GlSanchez-Regular116" transform="matrix(3.7 0 0 3.7 185.888 -10.424)"/>
   <use style="fill:#26537c;stroke:none;" xlink:href="#GlSanchez-Regular101" transform="matrix(3.7 0 0 3.7 199.504 -10.424)"/>
   <use style="fill:#26537c;stroke:none;" xlink:href="#GlSanchez-Regular114" transform="matrix(3.7 0 0 3.7 219.41 -10.424)"/>
   <use style="fill:#26537c;stroke:none;" xlink:href="#GlSanchez-Regular115" transform="matrix(3.7 0 0 3.7 246.568 -10.424)"/>
   <use style="fill:#26537c;stroke:none;" xlink:href="#GlSanchez-Regular99" transform="matrix(3.7 0 0 3.7 264.55 -10.424)"/>
   <use style="fill:#26537c;stroke:none;" xlink:href="#GlSanchez-Regular105" transform="matrix(3.7 0 0 3.7 284.641 -10.424)"/>
   <use style="fill:#26537c;stroke:none;" xlink:href="#GlSanchez-Regular101" transform="matrix(3.7 0 0 3.7 295.038 -10.424)"/>
   <use style="fill:#26537c;stroke:none;" xlink:href="#GlSanchez-Regular110" transform="matrix(3.7 0 0 3.7 314.944 -10.424)"/>
   <use style="fill:#26537c;stroke:none;" xlink:href="#GlSanchez-Regular99" transform="matrix(3.7 0 0 3.7 336.959 -10.424)"/>
   <use style="fill:#26537c;stroke:none;" xlink:href="#GlSanchez-Regular101" transform="matrix(3.7 0 0 3.7 356.902 -10.424)"/>
   <use style="fill:#414242;stroke:none;" xlink:href="#GlSanchez-Regular115" transform="matrix(3.7 0 0 3.7 388.389 -10.424)"/>
   <use style="fill:#414242;stroke:none;" xlink:href="#GlSanchez-Regular111" transform="matrix(3.7 0 0 3.7 406.371 -10.424)"/>
   <use style="fill:#414242;stroke:none;" xlink:href="#GlSanchez-Regular99" transform="matrix(3.7 0 0 3.7 427.461 -10.424)"/>
   <use style="fill:#414242;stroke:none;" xlink:href="#GlSanchez-Regular105" transform="matrix(3.7 0 0 3.7 447.552 -10.424)"/>
   <use style="fill:#414242;stroke:none;" xlink:href="#GlSanchez-Regular101" transform="matrix(3.7 0 0 3.7 457.949 -10.424)"/>
   <use style="fill:#414242;stroke:none;" xlink:href="#GlSanchez-Regular116" transform="matrix(3.7 0 0 3.7 477.67 -10.424)"/>
   <use style="fill:#414242;stroke:none;" xlink:href="#GlSanchez-Regular121" transform="matrix(3.7 0 0 3.7 491.656 -10.424)"/>
   <path style="fill:none; stroke:none;" d="M0 0 L523.013 0 L523.013 59.6248 L0 59.6248 L0 0 Z"/>
  </g>
 </g>
</svg>
