<?xml version="1.0" encoding="UTF-8"?>
<svg width="651.969pt" version="1.1" xmlns="http://www.w3.org/2000/svg" height="170.079pt" viewBox="0 0 651.969 170.079" xmlns:xlink="http://www.w3.org/1999/xlink">
 <defs>
  <path id="GlRobotoSlab-Regular72" d="M0.346719 3.51078 L0.346719 2.89062 L2.90047 2.89062 L2.90047 3.51078 L2.10453 3.6475 L2.10453 6.10344 L5.55172 6.10344 L5.55172 3.6475 L4.75594 3.51078 L4.75594 2.89062 L5.55172 2.89062 L6.51375 2.89062 L7.30953 2.89062 L7.30953 3.51078 L6.51375 3.6475 L6.51375 9.24797 L7.30953 9.38469 L7.30953 10 L4.75594 10 L4.75594 9.38469 L5.55172 9.24797 L5.55172 6.86031 L2.10453 6.86031 L2.10453 9.24797 L2.90047 9.38469 L2.90047 10 L0.346719 10 L0.346719 9.38469 L1.14266 9.24797 L1.14266 3.6475 L0.346719 3.51078 Z"/>
  <path id="GlRobotoSlab-Regular97" d="M3.88187 10 C3.88187 10 3.83797 9.78516 3.81344 9.61422 C3.81344 9.61422 3.78906 9.44328 3.77937 9.2725 C3.77937 9.2725 3.50094 9.62891 3.08344 9.86578 C3.08344 9.86578 2.66609 10.1025 2.19234 10.1025 C2.19234 10.1025 1.36719 10.1025 0.9375 9.69969 C0.9375 9.69969 0.507812 9.29688 0.507812 8.56438 C0.507812 8.56438 0.507812 7.8125 1.11563 7.40484 C1.11563 7.40484 1.72359 6.99703 2.78328 6.99703 L3.77438 6.99703 L3.77438 6.38187 C3.77438 6.38187 3.77438 5.91797 3.48141 5.64703 C3.48141 5.64703 3.18844 5.37594 2.66609 5.37594 C2.66609 5.37594 2.30469 5.37594 2.02875 5.46875 C2.02875 5.46875 1.75297 5.56156 1.58203 5.72266 L1.47953 6.27922 L0.737344 6.27922 L0.737344 5.25391 C0.737344 5.25391 1.09859 4.96578 1.61125 4.7925 C1.61125 4.7925 2.12406 4.61906 2.72469 4.61906 C2.72469 4.61906 3.62312 4.61906 4.17969 5.07812 C4.17969 5.07812 4.73641 5.53703 4.73641 6.39156 L4.73641 8.93547 C4.73641 8.93547 4.73641 9.03813 4.73875 9.13578 C4.73875 9.13578 4.74125 9.23344 4.75094 9.33109 L5.14156 9.38469 L5.14156 10 L3.88187 10 L3.88187 10 Z M2.33406 9.29688 C2.33406 9.29688 2.8125 9.29688 3.20797 9.06734 C3.20797 9.06734 3.60359 8.83781 3.77438 8.51562 L3.77438 7.64641 L2.74906 7.64641 C2.74906 7.64641 2.15828 7.64641 1.81391 7.91984 C1.81391 7.91984 1.46969 8.19328 1.46969 8.58391 C1.46969 8.58391 1.46969 8.93062 1.68453 9.11375 C1.68453 9.11375 1.89938 9.29688 2.33406 9.29688 Z"/>
  <path id="GlRobotoSlab-Regular99" d="M2.80766 9.35063 C2.80766 9.35063 3.28609 9.35063 3.64984 9.05516 C3.64984 9.05516 4.01375 8.75969 4.01375 8.33 L4.87797 8.33 L4.88766 8.35938 C4.88766 8.35938 4.91219 9.04297 4.27984 9.57281 C4.27984 9.57281 3.6475 10.1025 2.80766 10.1025 C2.80766 10.1025 1.65531 10.1025 1.04734 9.35063 C1.04734 9.35063 0.439531 8.59859 0.439531 7.46094 L0.439531 7.25578 C0.439531 7.25578 0.439531 6.12797 1.04984 5.37359 C1.04984 5.37359 1.66016 4.61906 2.80766 4.61906 C2.80766 4.61906 3.44234 4.61906 3.94766 4.82906 C3.94766 4.82906 4.45312 5.03906 4.78516 5.40531 L4.82906 6.57719 L4.0625 6.57719 L3.8525 5.74703 C3.8525 5.74703 3.68172 5.58109 3.41312 5.47859 C3.41312 5.47859 3.14453 5.37594 2.80766 5.37594 C2.80766 5.37594 2.05078 5.37594 1.72609 5.92047 C1.72609 5.92047 1.40141 6.46484 1.40141 7.25578 L1.40141 7.46094 C1.40141 7.46094 1.40141 8.27141 1.72359 8.81109 C1.72359 8.81109 2.04594 9.35063 2.80766 9.35063 Z"/>
  <path id="GlRobotoSlab-Regular107" d="M0.302812 3.00297 L0.302812 2.38281 L2.06062 2.38281 L2.06062 6.79688 L2.67578 6.79688 L3.80375 5.40031 L3.32031 5.33688 L3.32031 4.71672 L5.53219 4.71672 L5.53219 5.33688 L4.88766 5.46391 L3.49609 7.12406 L5.19047 9.2675 L5.79109 9.38469 L5.79109 10 L3.59859 10 L3.59859 9.38469 L4.09187 9.32125 L2.69047 7.56344 L2.06062 7.56344 L2.06062 9.24797 L2.85641 9.38469 L2.85641 10 L0.302812 10 L0.302812 9.38469 L1.09859 9.24797 L1.09859 3.13969 L0.302812 3.00297 Z"/>
  <path id="GlRobotoSlab-Regular83" d="M5.49313 4.99016 L4.76562 4.99016 L4.585 3.97453 C4.585 3.97453 4.36531 3.78906 3.99906 3.66703 C3.99906 3.66703 3.63281 3.54484 3.14938 3.54484 C3.14938 3.54484 2.38281 3.54484 1.97266 3.86969 C1.97266 3.86969 1.5625 4.19437 1.5625 4.71672 C1.5625 4.71672 1.5625 5.18063 1.98 5.49078 C1.98 5.49078 2.3975 5.80078 3.33016 6.03516 C3.33016 6.03516 4.45312 6.31344 5.03656 6.85547 C5.03656 6.85547 5.62016 7.3975 5.62016 8.19828 C5.62016 8.19828 5.62016 9.05766 4.91938 9.58016 C4.91938 9.58016 4.21875 10.1025 3.08594 10.1025 C3.08594 10.1025 2.26562 10.1025 1.62844 9.83406 C1.62844 9.83406 0.99125 9.56547 0.590781 9.13078 L0.590781 7.80766 L1.31344 7.80766 L1.49906 8.82812 C1.49906 8.82812 1.77734 9.05766 2.16312 9.20422 C2.16312 9.20422 2.54891 9.35063 3.08594 9.35063 C3.08594 9.35063 3.81344 9.35063 4.23578 9.04297 C4.23578 9.04297 4.65828 8.73531 4.65828 8.20797 C4.65828 8.20797 4.65828 7.71969 4.29203 7.39016 C4.29203 7.39016 3.92578 7.06047 2.99812 6.83594 C2.99812 6.83594 1.87016 6.56734 1.23531 6.045 C1.23531 6.045 0.600625 5.5225 0.600625 4.73141 C0.600625 4.73141 0.600625 3.89641 1.30859 3.34234 C1.30859 3.34234 2.01656 2.78812 3.14938 2.78812 C3.14938 2.78812 3.89656 2.78812 4.50922 3.04453 C4.50922 3.04453 5.12203 3.30078 5.49313 3.66703 L5.49313 4.99016 Z"/>
  <path id="GlRobotoSlab-Regular111" d="M0.439531 7.30953 C0.439531 7.30953 0.439531 6.13766 1.07422 5.37844 C1.07422 5.37844 1.70906 4.61906 2.79781 4.61906 C2.79781 4.61906 3.89156 4.61906 4.52875 5.37594 C4.52875 5.37594 5.16609 6.13281 5.16609 7.30953 L5.16609 7.41703 C5.16609 7.41703 5.16609 8.59859 4.53125 9.35063 C4.53125 9.35063 3.89656 10.1025 2.80766 10.1025 C2.80766 10.1025 1.70906 10.1025 1.07422 9.34812 C1.07422 9.34812 0.439531 8.59375 0.439531 7.41703 L0.439531 7.30953 L0.439531 7.30953 Z M1.40141 7.41703 C1.40141 7.41703 1.40141 8.25688 1.75531 8.80375 C1.75531 8.80375 2.10938 9.35063 2.80766 9.35063 C2.80766 9.35063 3.49125 9.35063 3.84766 8.80375 C3.84766 8.80375 4.20406 8.25688 4.20406 7.41703 L4.20406 7.30953 C4.20406 7.30953 4.20406 6.47953 3.84766 5.92781 C3.84766 5.92781 3.49125 5.37594 2.79781 5.37594 C2.79781 5.37594 2.10453 5.37594 1.75297 5.92781 C1.75297 5.92781 1.40141 6.47953 1.40141 7.30953 L1.40141 7.41703 Z"/>
  <path id="GlRobotoSlab-Regular116" d="M2.11422 3.44234 L2.11422 4.71672 L3.11531 4.71672 L3.11531 5.42969 L2.11422 5.42969 L2.11422 8.63766 C2.11422 8.63766 2.11422 9.00875 2.26797 9.16016 C2.26797 9.16016 2.42188 9.31156 2.67578 9.31156 C2.67578 9.31156 2.80281 9.31156 2.96141 9.28953 C2.96141 9.28953 3.12016 9.2675 3.2275 9.24312 L3.35938 9.90234 C3.35938 9.90234 3.22266 9.99016 2.95891 10.0463 C2.95891 10.0463 2.69531 10.1025 2.43172 10.1025 C2.43172 10.1025 1.84578 10.1025 1.49906 9.74859 C1.49906 9.74859 1.15234 9.39453 1.15234 8.63766 L1.15234 5.42969 L0.317344 5.42969 L0.317344 4.71672 L1.15234 4.71672 L1.15234 3.44234 L2.11422 3.44234 Z"/>
  <path id="GlRobotoSlab-Regular104" d="M0.302812 9.38469 L1.09859 9.24797 L1.09859 3.13969 L0.302812 3.00297 L0.302812 2.38281 L2.06062 2.38281 L2.06062 5.41984 C2.06062 5.41984 2.33406 5.03906 2.72953 4.82906 C2.72953 4.82906 3.125 4.61906 3.60844 4.61906 C3.60844 4.61906 4.45797 4.61906 4.92672 5.12688 C4.92672 5.12688 5.39547 5.63469 5.39547 6.68938 L5.39547 9.24797 L6.19141 9.38469 L6.19141 10 L3.63766 10 L3.63766 9.38469 L4.43359 9.24797 L4.43359 6.67969 C4.43359 6.67969 4.43359 6.02531 4.15281 5.71281 C4.15281 5.71281 3.87203 5.40031 3.31547 5.40031 C3.31547 5.40031 2.92 5.40031 2.59516 5.58844 C2.59516 5.58844 2.27047 5.77641 2.06062 6.09859 L2.06062 9.24797 L2.85641 9.38469 L2.85641 10 L0.302812 10 L0.302812 9.38469 Z"/>
  <path id="GlRobotoSlab-Regular101" d="M2.84672 10.1025 C2.84672 10.1025 1.74313 10.1025 1.09125 9.36766 C1.09125 9.36766 0.439531 8.63281 0.439531 7.46094 L0.439531 7.24609 C0.439531 7.24609 0.439531 6.11813 1.11078 5.36859 C1.11078 5.36859 1.78219 4.61906 2.70016 4.61906 C2.70016 4.61906 3.76469 4.61906 4.31391 5.26359 C4.31391 5.26359 4.86328 5.90813 4.86328 6.98234 L4.86328 7.58297 L1.43562 7.58297 L1.42094 7.60734 C1.42094 7.60734 1.43562 8.36906 1.80672 8.85984 C1.80672 8.85984 2.17781 9.35063 2.84672 9.35063 C2.84672 9.35063 3.335 9.35063 3.70359 9.21141 C3.70359 9.21141 4.07234 9.07219 4.34078 8.82812 L4.71687 9.45312 C4.71687 9.45312 4.43359 9.72656 3.96719 9.91453 C3.96719 9.91453 3.50094 10.1025 2.84672 10.1025 L2.84672 10.1025 Z M2.70016 5.37594 C2.70016 5.37594 2.21687 5.37594 1.875 5.78375 C1.875 5.78375 1.53328 6.19141 1.45516 6.80656 L1.46484 6.83109 L3.90141 6.83109 L3.90141 6.70406 C3.90141 6.70406 3.90141 6.13766 3.59859 5.75687 C3.59859 5.75687 3.29594 5.37594 2.70016 5.37594 Z"/>
  <path id="GlRobotoSlab-Regular109" d="M0.244219 9.38469 L1.04 9.24797 L1.04 5.47359 L0.244219 5.33688 L0.244219 4.71672 L1.90437 4.71672 L1.96781 5.40531 C1.96781 5.40531 2.22172 5.02922 2.62203 4.82422 C2.62203 4.82422 3.0225 4.61906 3.54984 4.61906 C3.54984 4.61906 4.07719 4.61906 4.45563 4.86328 C4.45563 4.86328 4.83406 5.10734 5.02438 5.59563 C5.02438 5.59563 5.27344 5.14641 5.68359 4.88281 C5.68359 4.88281 6.09375 4.61906 6.64062 4.61906 C6.64062 4.61906 7.45125 4.61906 7.92 5.17328 C7.92 5.17328 8.38875 5.7275 8.38875 6.84078 L8.38875 9.24797 L9.18453 9.38469 L9.18453 10 L6.62594 10 L6.62594 9.38469 L7.42188 9.24797 L7.42188 6.83109 C7.42188 6.83109 7.42188 6.04984 7.15328 5.72516 C7.15328 5.72516 6.88484 5.40031 6.3575 5.40031 C6.3575 5.40031 5.85453 5.40031 5.54938 5.75437 C5.54938 5.75437 5.24422 6.10844 5.19531 6.64547 L5.19531 9.24797 L5.99125 9.38469 L5.99125 10 L3.4375 10 L3.4375 9.38469 L4.23344 9.24797 L4.23344 6.83109 C4.23344 6.83109 4.23344 6.08891 3.9575 5.74469 C3.9575 5.74469 3.68172 5.40031 3.15922 5.40031 C3.15922 5.40031 2.71969 5.40031 2.43641 5.58109 C2.43641 5.58109 2.15328 5.76172 2.00203 6.08891 L2.00203 9.24797 L2.79781 9.38469 L2.79781 10 L0.244219 10 L0.244219 9.38469 Z"/>
  <path id="GlRobotoSlab-Regular112" d="M0.317344 11.4111 L1.11328 11.2744 L1.11328 5.47359 L0.317344 5.33688 L0.317344 4.71672 L1.93844 4.71672 L2.02641 5.36125 C2.02641 5.36125 2.29 5 2.66844 4.80953 C2.66844 4.80953 3.04688 4.61906 3.545 4.61906 C3.545 4.61906 4.52641 4.61906 5.07078 5.39797 C5.07078 5.39797 5.61531 6.17672 5.61531 7.45609 L5.61531 7.55859 C5.61531 7.55859 5.61531 8.70109 5.06844 9.40188 C5.06844 9.40188 4.52156 10.1025 3.55953 10.1025 C3.55953 10.1025 3.07125 10.1025 2.70266 9.93891 C2.70266 9.93891 2.33406 9.77531 2.07516 9.45312 L2.07516 11.2744 L2.87109 11.4111 L2.87109 12.0312 L0.317344 12.0312 L0.317344 11.4111 L0.317344 11.4111 Z M4.64844 7.45609 C4.64844 7.45609 4.64844 6.55266 4.29688 5.97656 C4.29688 5.97656 3.94531 5.40031 3.25203 5.40031 C3.25203 5.40031 2.84187 5.40031 2.54891 5.58594 C2.54891 5.58594 2.25594 5.77141 2.07516 6.09375 L2.07516 8.66703 C2.07516 8.66703 2.25594 8.99406 2.54641 9.17234 C2.54641 9.17234 2.83688 9.35063 3.26172 9.35063 C3.26172 9.35063 3.94531 9.35063 4.29688 8.85266 C4.29688 8.85266 4.64844 8.35453 4.64844 7.55859 L4.64844 7.45609 Z"/>
  <path id="GlRobotoSlab-Regular117" d="M4.21391 9.21875 C4.21391 9.21875 3.96484 9.64359 3.57172 9.87312 C3.57172 9.87312 3.17875 10.1025 2.66609 10.1025 C2.66609 10.1025 1.80672 10.1025 1.32328 9.55078 C1.32328 9.55078 0.839844 8.99906 0.839844 7.83203 L0.839844 5.47359 L0.234375 5.33688 L0.234375 4.71672 L0.839844 4.71672 L1.80172 4.71672 L1.80172 7.84172 C1.80172 7.84172 1.80172 8.68656 2.05078 9.00391 C2.05078 9.00391 2.29984 9.32125 2.82719 9.32125 C2.82719 9.32125 3.33984 9.32125 3.67422 9.11375 C3.67422 9.11375 4.00875 8.90625 4.17969 8.52531 L4.17969 5.47359 L3.47172 5.33688 L3.47172 4.71672 L4.17969 4.71672 L5.14156 4.71672 L5.14156 9.24797 L5.74703 9.38469 L5.74703 10 L4.27734 10 L4.21391 9.21875 Z"/>
  <path id="GlRobotoSlab-Regular114" d="M0.434531 5.33688 L0.434531 4.71672 L2.08984 4.71672 L2.18266 5.48344 C2.18266 5.48344 2.40719 5.07812 2.73672 4.84859 C2.73672 4.84859 3.06641 4.61906 3.49125 4.61906 C3.49125 4.61906 3.60359 4.61906 3.72313 4.63625 C3.72313 4.63625 3.84281 4.65328 3.90625 4.67281 L3.77937 5.56641 L3.2325 5.53703 C3.2325 5.53703 2.85156 5.53703 2.59281 5.71531 C2.59281 5.71531 2.33406 5.89359 2.19234 6.21578 L2.19234 9.24797 L2.98828 9.38469 L2.98828 10 L0.434531 10 L0.434531 9.38469 L1.23047 9.24797 L1.23047 5.47359 L0.434531 5.33688 Z"/>
  <path id="GlRobotoSlab-Regular115" d="M4.4775 6.37688 L3.75484 6.37688 L3.59859 5.74219 C3.59859 5.74219 3.42281 5.57609 3.15672 5.47609 C3.15672 5.47609 2.89062 5.37594 2.55375 5.37594 C2.55375 5.37594 2.04109 5.37594 1.79203 5.60062 C1.79203 5.60062 1.54297 5.82516 1.54297 6.1425 C1.54297 6.1425 1.54297 6.455 1.76266 6.63578 C1.76266 6.63578 1.9825 6.81641 2.65625 6.95797 C2.65625 6.95797 3.65719 7.17281 4.14547 7.54156 C4.14547 7.54156 4.63375 7.91016 4.63375 8.53031 C4.63375 8.53031 4.63375 9.23344 4.06484 9.66797 C4.06484 9.66797 3.49609 10.1025 2.57812 10.1025 C2.57812 10.1025 1.9775 10.1025 1.49891 9.96344 C1.49891 9.96344 1.02047 9.82422 0.644531 9.56047 L0.639687 8.35453 L1.36234 8.35453 L1.54297 9.0625 C1.54297 9.0625 1.70906 9.21391 1.99469 9.28234 C1.99469 9.28234 2.28031 9.35063 2.57812 9.35063 C2.57812 9.35063 3.09078 9.35063 3.38125 9.14312 C3.38125 9.14312 3.67188 8.93547 3.67188 8.59859 C3.67188 8.59859 3.67188 8.28125 3.43016 8.07625 C3.43016 8.07625 3.18844 7.87109 2.51469 7.71969 C2.51469 7.71969 1.55281 7.50969 1.06453 7.14844 C1.06453 7.14844 0.57625 6.78703 0.57625 6.17188 C0.57625 6.17188 0.57625 5.52734 1.12547 5.07328 C1.12547 5.07328 1.67484 4.61906 2.55375 4.61906 C2.55375 4.61906 3.15437 4.61906 3.63281 4.77531 C3.63281 4.77531 4.11141 4.93156 4.42875 5.21 L4.4775 6.37688 Z"/>
  <path id="GlRobotoSlab-Regular105" d="M0.434531 9.38469 L1.23047 9.24797 L1.23047 5.47359 L0.434531 5.33688 L0.434531 4.71672 L2.19234 4.71672 L2.19234 9.24797 L2.98828 9.38469 L2.98828 10 L0.434531 10 L0.434531 9.38469 L0.434531 9.38469 Z M2.19234 3.36422 L1.23047 3.36422 L1.23047 2.38281 L2.19234 2.38281 L2.19234 3.36422 Z"/>
  <path id="GlRobotoSlab-Regular110" d="M0.292969 9.38469 L1.08891 9.24797 L1.08891 5.47359 L0.292969 5.33688 L0.292969 4.71672 L1.94828 4.71672 L2.01656 5.50297 C2.01656 5.50297 2.28031 5.08297 2.67828 4.85109 C2.67828 4.85109 3.07625 4.61906 3.58406 4.61906 C3.58406 4.61906 4.43844 4.61906 4.90719 5.11969 C4.90719 5.11969 5.37594 5.62016 5.37594 6.665 L5.37594 9.24797 L6.17188 9.38469 L6.17188 10 L3.61813 10 L3.61813 9.38469 L4.41406 9.24797 L4.41406 6.68453 C4.41406 6.68453 4.41406 5.98625 4.13813 5.69328 C4.13813 5.69328 3.86234 5.40031 3.29594 5.40031 C3.29594 5.40031 2.88094 5.40031 2.56109 5.60062 C2.56109 5.60062 2.24125 5.80078 2.05078 6.1475 L2.05078 9.24797 L2.84672 9.38469 L2.84672 10 L0.292969 10 L0.292969 9.38469 Z"/>
  <path id="GlRobotoSlab-Regular121" d="M5.45406 5.33688 L4.98047 5.41016 L2.96875 10.8106 C2.96875 10.8106 2.76859 11.3428 2.3925 11.7383 C2.3925 11.7383 2.01656 12.1337 1.38187 12.1337 C1.38187 12.1337 1.26953 12.1337 1.08891 12.1069 C1.08891 12.1069 0.908281 12.0802 0.810625 12.0556 L0.908281 11.2989 C0.908281 11.2989 0.878906 11.2939 1.08156 11.3086 C1.08156 11.3086 1.28422 11.3233 1.33797 11.3233 C1.33797 11.3233 1.64547 11.3233 1.83594 11.0572 C1.83594 11.0572 2.02641 10.7911 2.16797 10.4444 L2.3975 9.8975 L0.654375 5.415 L0.170937 5.33688 L0.170937 4.71672 L2.30469 4.71672 L2.30469 5.33688 L1.70906 5.43453 L2.62203 8.04203 L2.79781 8.71578 L2.82719 8.71578 L3.92578 5.43453 L3.32516 5.33688 L3.32516 4.71672 L5.45406 4.71672 L5.45406 5.33688 Z"/>
  <clipPath id="Clip0">
   <path d="M0 0 L169.5 0 L169.5 169 L0 169 L0 0 Z" transform="translate(1.25, 0.25)"/>
  </clipPath>
  <clipPath id="Clip1">
   <path d="M0 0 L115.23 0 L115.23 103.945 L0 103.945 L0 0 Z" transform="translate(33.9589, 38.993)"/>
  </clipPath>
 </defs>
 <g id="Background">
  <g transform="translate(184, 20)">
   <use style="fill:#454545;stroke:none;" xlink:href="#GlRobotoSlab-Regular72" transform="matrix(11 0 0 11 0 -26.2009)"/>
   <use style="fill:#454545;stroke:none;" xlink:href="#GlRobotoSlab-Regular97" transform="matrix(11 0 0 11 84.4873 -26.2009)"/>
   <use style="fill:#454545;stroke:none;" xlink:href="#GlRobotoSlab-Regular99" transform="matrix(11 0 0 11 145.073 -26.2009)"/>
   <use style="fill:#454545;stroke:none;" xlink:href="#GlRobotoSlab-Regular107" transform="matrix(11 0 0 11 204.37 -26.2009)"/>
   <use style="fill:#454545;stroke:none;" xlink:href="#GlRobotoSlab-Regular83" transform="matrix(11 0 0 11 271.24 -26.2009)"/>
   <use style="fill:#454545;stroke:none;" xlink:href="#GlRobotoSlab-Regular111" transform="matrix(11 0 0 11 338.218 -26.2009)"/>
   <use style="fill:#454545;stroke:none;" xlink:href="#GlRobotoSlab-Regular99" transform="matrix(11 0 0 11 399.932 -26.2009)"/>
   <path style="fill:none; stroke:none;" d="M0 0 L483 0 L483 118.125 L0 118.125 L0 0 Z"/>
  </g>
  <g transform="translate(190.625, 123.25)">
   <use style="fill:#454545;stroke:none;" xlink:href="#GlRobotoSlab-Regular116" transform="matrix(3.1 0 0 3.1 0 -7.37672)"/>
   <use style="fill:#454545;stroke:none;" xlink:href="#GlRobotoSlab-Regular104" transform="matrix(3.1 0 0 3.1 11.3525 -7.37672)"/>
   <use style="fill:#454545;stroke:none;" xlink:href="#GlRobotoSlab-Regular101" transform="matrix(3.1 0 0 3.1 31.2119 -7.37672)"/>
   <use style="fill:#330052;stroke:none;" xlink:href="#GlRobotoSlab-Regular99" transform="matrix(3.1 0 0 3.1 55.582 -7.37672)"/>
   <use style="fill:#330052;stroke:none;" xlink:href="#GlRobotoSlab-Regular111" transform="matrix(3.1 0 0 3.1 72.293 -7.37672)"/>
   <use style="fill:#330052;stroke:none;" xlink:href="#GlRobotoSlab-Regular109" transform="matrix(3.1 0 0 3.1 89.6851 -7.37672)"/>
   <use style="fill:#330052;stroke:none;" xlink:href="#GlRobotoSlab-Regular112" transform="matrix(3.1 0 0 3.1 118.975 -7.37672)"/>
   <use style="fill:#330052;stroke:none;" xlink:href="#GlRobotoSlab-Regular117" transform="matrix(3.1 0 0 3.1 137.744 -7.37672)"/>
   <use style="fill:#330052;stroke:none;" xlink:href="#GlRobotoSlab-Regular116" transform="matrix(3.1 0 0 3.1 156.574 -7.37672)"/>
   <use style="fill:#330052;stroke:none;" xlink:href="#GlRobotoSlab-Regular101" transform="matrix(3.1 0 0 3.1 167.927 -7.37672)"/>
   <use style="fill:#330052;stroke:none;" xlink:href="#GlRobotoSlab-Regular114" transform="matrix(3.1 0 0 3.1 184.592 -7.37672)"/>
   <use style="fill:#330052;stroke:none;" xlink:href="#GlRobotoSlab-Regular115" transform="matrix(3.1 0 0 3.1 205.118 -7.37672)"/>
   <use style="fill:#330052;stroke:none;" xlink:href="#GlRobotoSlab-Regular99" transform="matrix(3.1 0 0 3.1 220.92 -7.37672)"/>
   <use style="fill:#330052;stroke:none;" xlink:href="#GlRobotoSlab-Regular105" transform="matrix(3.1 0 0 3.1 237.631 -7.37672)"/>
   <use style="fill:#330052;stroke:none;" xlink:href="#GlRobotoSlab-Regular101" transform="matrix(3.1 0 0 3.1 247.818 -7.37672)"/>
   <use style="fill:#330052;stroke:none;" xlink:href="#GlRobotoSlab-Regular110" transform="matrix(3.1 0 0 3.1 264.484 -7.37672)"/>
   <use style="fill:#330052;stroke:none;" xlink:href="#GlRobotoSlab-Regular99" transform="matrix(3.1 0 0 3.1 284.283 -7.37672)"/>
   <use style="fill:#330052;stroke:none;" xlink:href="#GlRobotoSlab-Regular101" transform="matrix(3.1 0 0 3.1 300.994 -7.37672)"/>
   <use style="fill:#454545;stroke:none;" xlink:href="#GlRobotoSlab-Regular115" transform="matrix(3.1 0 0 3.1 325.364 -7.37672)"/>
   <use style="fill:#454545;stroke:none;" xlink:href="#GlRobotoSlab-Regular111" transform="matrix(3.1 0 0 3.1 341.167 -7.37672)"/>
   <use style="fill:#454545;stroke:none;" xlink:href="#GlRobotoSlab-Regular99" transform="matrix(3.1 0 0 3.1 358.559 -7.37672)"/>
   <use style="fill:#454545;stroke:none;" xlink:href="#GlRobotoSlab-Regular105" transform="matrix(3.1 0 0 3.1 375.27 -7.37672)"/>
   <use style="fill:#454545;stroke:none;" xlink:href="#GlRobotoSlab-Regular101" transform="matrix(3.1 0 0 3.1 385.457 -7.37672)"/>
   <use style="fill:#454545;stroke:none;" xlink:href="#GlRobotoSlab-Regular116" transform="matrix(3.1 0 0 3.1 402.122 -7.37672)"/>
   <use style="fill:#454545;stroke:none;" xlink:href="#GlRobotoSlab-Regular121" transform="matrix(3.1 0 0 3.1 413.475 -7.37672)"/>
   <path style="fill:none; stroke:none;" d="M0 0 L450 0 L450 46.125 L0 46.125 L0 0 Z"/>
  </g>
  <g id="Group7" clip-path="url(#Clip0)">
   <path style="fill:#372d43; fill-rule:evenodd;stroke:none;" id="Copy of  circle" d="M169.5 84.5 C169.5 131.17 131.558 169 84.75 169 C37.9439 169 0 131.17 0 84.5 C0 37.832 37.9439 0 84.75 0 C131.558 0 169.5 37.832 169.5 84.5 Z" transform="translate(1.25, 0.25)"/>
   <g id="Copy of text" clip-path="url(#Clip1)">
    <path style="fill:#ffffff; fill-rule:nonzero;stroke:none;" id="Copy of  lambda" d="M0 79.1316 L23.9261 25.318 L21.6498 18.9129 C20.4021 15.5842 18.9857 13.2643 17.4008 11.9529 C15.8496 10.608 13.7082 9.93556 10.9767 9.93556 C9.08821 9.93556 7.25032 10.1373 5.46304 10.5408 L5.46304 0.857358 C7.75616 0.285786 10.2853 0 13.0506 7.10543e-14 C16.524 0 19.441 0.554778 21.8015 1.66433 C24.1959 2.74027 26.2361 4.43822 27.9222 6.7582 C29.642 9.07819 31.4125 12.7095 33.2335 17.652 L49.5214 62.69 C50.4993 65.3126 51.4941 67.2459 52.5058 68.4899 C53.5175 69.734 54.7316 70.356 56.1478 70.356 C56.7548 70.356 57.8509 70.1879 59.4358 69.8517 L59.4358 78.829 C58.5591 79.2325 57.4292 79.5519 56.0466 79.7873 C54.664 80.0224 53.3826 80.1401 52.2023 80.1401 C49.1673 80.1401 46.7224 79.4172 44.8677 77.9715 C43.013 76.492 41.4617 73.9871 40.214 70.4566 C35.3917 57.0747 32.4242 48.7026 31.3113 45.3403 C30.1984 41.978 29.4902 39.574 29.1867 38.1282 L28.8832 38.1282 C27.7029 42.6674 26.0843 47.3409 24.0273 52.1489 L12.3424 79.1313 L0 79.1316 Z" transform="translate(33.9589, 38.993)"/>
    <path style="fill:#bdafc9; fill-rule:nonzero;stroke:none;" id="Copy of  y" d="M0 0 L12.9494 0 L24.3308 31.6224 C26.0506 36.1278 27.1972 40.3643 27.7705 44.3319 L28.1751 44.3319 C28.4786 42.4826 29.0351 40.2467 29.8443 37.6242 C30.6537 34.9678 34.9365 22.4266 42.6927 0 L55.5409 0 L31.6148 63.1944 C27.2646 74.7943 20.0142 80.5943 9.86383 80.5943 C7.23348 80.5943 4.67057 80.3084 2.17511 79.7368 L2.17511 70.356 C3.96239 70.7595 6.0026 70.9613 8.29573 70.9613 C14.0285 70.9613 18.0584 67.6494 20.3853 61.0256 L22.4591 55.7806 L0 0 Z" transform="translate(93.6476, 62.3441)"/>
   </g>
  </g>
 </g>
</svg>
